<?xml version="1.0" encoding="UTF-8"?>
<svg id="Calque_2" data-name="Calque 2" xmlns="http://www.w3.org/2000/svg" viewBox="0 0 481.98 187.56">
  <defs>
    <style>
      .cls-1 {
        fill: #96f;
      }

      .cls-2 {
        fill: #1d1d1b;
      }
    </style>
  </defs>
  <g id="Calque_1-2" data-name="Calque 1">
    <g>
      <path class="cls-2" d="m224.83,57.48c-13.13,0-25.31,7.11-31.78,18.55-3.09,5.45-4.73,11.66-4.73,17.96v88.44c0,2.83,2.3,5.13,5.13,5.13h2.06c2.83,0,5.13-2.3,5.13-5.13v-61.11c6.65,5.87,15.28,9.18,24.19,9.18,20.13,0,36.51-16.38,36.51-36.51,0-20.13-16.38-36.51-36.51-36.51Zm24.05,39.15c-1.2,11.22-10.2,20.22-21.41,21.41-.87.09-1.76.14-2.63.14-6.84,0-13.4-2.93-17.99-8.03-4.65-5.17-6.8-11.84-6.06-18.79,1.19-11.21,10.19-20.22,21.41-21.41.87-.09,1.76-.14,2.63-.14,6.84,0,13.4,2.93,17.99,8.03,4.64,5.17,6.8,11.84,6.06,18.79Z"/>
      <path class="cls-2" d="m397.88,90.67c-.75-8.44-4.5-16.42-10.55-22.48-6.06-6.06-14.04-9.81-22.48-10.56-1.11-.1-2.24-.15-3.34-.15-10.21,0-20.02,4.33-26.94,11.88-7,7.65-10.35,17.58-9.43,27.94.75,8.43,4.5,16.42,10.56,22.48,6.06,6.05,14.04,9.8,22.48,10.56,1.11.1,2.23.15,3.34.15h.01c10.2,0,20.02-4.33,26.93-11.88,7-7.65,10.35-17.57,9.42-27.94Zm-34.8,27.45c-.52.04-1.04.05-1.56.05-6.84,0-13.4-2.93-17.99-8.03-4.65-5.17-6.8-11.84-6.07-18.78,1.19-11.21,10.19-20.22,21.41-21.42.88-.09,1.77-.14,2.65-.14,6.64,0,13.08,2.79,17.64,7.66,4.62,4.94,6.93,11.37,6.49,18.13-.78,12.08-10.49,21.77-22.57,22.53Z"/>
      <path class="cls-2" d="m316.99,58.66c.76.75,1.19,1.8,1.19,2.87v4.21c0,2.24-1.8,4.06-4.01,4.06-6.51,0-12.58,2.52-17.15,7.09-4.57,4.56-7.08,10.63-7.08,17.1v28.25c0,2.24-1.82,4.06-4.06,4.06h-4.21c-2.24,0-4.06-1.82-4.06-4.06v-60.7c0-2.24,1.82-4.06,4.06-4.06h4.18c2.24,0,4.06,1.82,4.06,4.06v4.44c.02.16.03.33.03.51v.18c6.65-5.87,15.28-9.18,24.19-9.18,1.07-.02,2.09.4,2.86,1.17Z"/>
      <path class="cls-2" d="m469.65,5.19v61.64c-6.66-5.88-15.29-9.2-24.19-9.2-20.14,0-36.51,16.39-36.51,36.52s16.38,36.51,36.51,36.51c13.11,0,25.29-7.11,31.79-18.55,3.09-5.46,4.73-11.67,4.73-17.96V5.19c0-2.83-2.3-5.13-5.13-5.13h-2.06c-2.85,0-5.14,2.29-5.14,5.13Zm-6.21,105.12c-4.59,5.1-11.15,8.03-18,8.03-.52,0-1.05-.02-1.58-.05-12.09-.77-21.78-10.47-22.56-22.55-.43-6.76,1.88-13.2,6.51-18.13,4.56-4.86,10.99-7.65,17.63-7.65.87,0,1.76.05,2.63.14,11.22,1.19,20.22,10.2,21.42,21.41.75,6.96-1.4,13.63-6.05,18.8Z"/>
      <path class="cls-1" d="m133.73,94.01v57.04c0,6.3-1.64,12.51-4.74,17.96-1.39,2.44-3.04,4.71-4.93,6.74-3.12,3.39-6.81,6.14-10.97,8.15-4.93,2.4-10.42,3.66-15.88,3.66s-10.78-1.2-15.71-3.56c-.05-.02-.09-.04-.13-.06-1.5-.72-2.97-1.56-4.36-2.48-.95-.63-1.89-1.31-2.77-2.04-.15-.12-.63-.53-1.15-.98-1.59-1.38-1.87-3.7-.65-5.42l2.44-3.43c.75-1.07,1.99-1.71,3.31-1.71.98,0,1.93.35,2.67,1,.03.02.05.05.08.07,1.02.92,2.13,1.78,3.29,2.51,1,.63,2.05,1.2,3.13,1.68,3.09,1.39,6.39,2.09,9.81,2.09,13.32.02,24.22-11.27,24.22-24.58v-29.32c-6.65,5.88-15.28,9.19-24.19,9.19-8.39,0-16.26-2.75-22.75-7.96-2.3-1.83-4.43-4.01-6.31-6.47l-.52-.68c-.06-.07-.1-.14-.14-.22-1.84-2.57-3.32-5.35-4.42-8.27-1.57-4.11-2.37-8.45-2.37-12.92s-1.33-9.21-3.86-13.12c-1.17-1.82-2.59-3.48-4.2-4.92-4.43-3.97-10.17-6.15-16.15-6.15-.78,0-1.57.04-2.35.11-11.92,1.15-21.3,11.06-21.79,23.05-.28,6.65,2.1,12.95,6.71,17.76s10.81,7.45,17.45,7.45c5.98,0,11.71-2.19,16.13-6.15.28-.26.65-.4,1.03-.4.11,0,.22,0,.33.04.49.11.89.44,1.09.89.31.72.66,1.47,1.07,2.27.63,1.23,1.31,2.43,2.03,3.57.43.7.87,1.36,1.37,2.06.47.66.34,1.58-.29,2.09-6.49,5.21-14.35,7.96-22.75,7.96-13.11,0-25.29-7.11-31.78-18.55-3.09-5.46-4.73-11.67-4.73-17.96V5.13C0,2.3,2.3,0,5.13,0h2.06c2.83,0,5.13,2.3,5.13,5.13v61.54c6.65-5.88,15.28-9.19,24.19-9.19,8.4,0,16.27,2.75,22.75,7.96,2.34,1.88,4.46,4.07,6.31,6.49,2.12,2.74,3.83,5.82,5.09,9.15,1.57,4.1,2.37,8.45,2.37,12.92s1.33,9.22,3.86,13.12c1.18,1.83,2.59,3.48,4.2,4.91,4.42,3.97,10.14,6.16,16.11,6.16.77,0,1.55-.04,2.32-.11,11.94-1.11,21.34-10.99,21.87-22.99.29-6.65-2.08-12.97-6.7-17.79-4.61-4.82-10.82-7.48-17.48-7.48-5.97,0-11.7,2.19-16.12,6.15-.28.26-.65.4-1.03.4-.11,0-.22,0-.33-.04-.49-.11-.89-.44-1.08-.89-.31-.72-.67-1.47-1.08-2.27-.63-1.23-1.31-2.43-2.03-3.57-.43-.69-.88-1.38-1.36-2.06-.47-.67-.34-1.59.29-2.09,6.49-5.21,14.35-7.96,22.75-7.96,13.11,0,25.3,7.11,31.79,18.55,3.08,5.46,4.72,11.67,4.72,17.97Z"/>
    </g>
  </g>
</svg>